<svg xmlns="http://www.w3.org/2000/svg" viewBox="0 0 1547 1090" preserveAspectRatio="xMidYMid" width="1547" height="1090" xmlns:xlink="http://www.w3.org/1999/xlink" style="shape-rendering:auto;display:block;background-position-x:0%;background-position-y:0%;background-size:auto;background-origin:padding-box;background-clip:border-box;background:scroll rgba(0, 0, 0, 0) none  repeat;width:1547px;height:1090px;;animation:none"><g><linearGradient y2="0" y1="0" x2="1" x1="0" id="lg-o578w6yh81n"><stop offset="0" stop-color="#a78bfa"></stop>

  
<stop offset="1" stop-color="#60a5fa"></stop></linearGradient>
<path opacity="0.4" fill="url(#lg-o578w6yh81n)" d="M 0 0 L 0 737.59 Q 154.7 699.3 309.4 679.29 T 618.8 519.7 T 928.2 470 T 1237.6 544.74 T 1547 431.93 L 1547 0 Z" style="fill:url('#lg-o578w6yh81n');opacity:0.4;;animation:none"></path>
<path opacity="0.4" fill="url(#lg-o578w6yh81n)" d="M 0 0 L 0 681.46 Q 154.7 648.929 309.4 624.106 T 618.8 544.991 T 928.2 445.396 T 1237.6 356.022 T 1547 356.619 L 1547 0 Z" style="fill:url('#lg-o578w6yh81n');opacity:0.4;;animation:none"></path>
<path opacity="0.4" fill="url(#lg-o578w6yh81n)" d="M 0 0 L 0 698.737 Q 154.7 755.525 309.4 731.305 T 618.8 488.11 T 928.2 532.193 T 1237.6 412.676 T 1547 336.495 L 1547 0 Z" style="fill:url('#lg-o578w6yh81n');opacity:0.4;;animation:none"></path>
<path opacity="0.4" fill="url(#lg-o578w6yh81n)" d="M 0 0 L 0 745.638 Q 154.7 634.076 309.4 609.355 T 618.8 636.63 T 928.2 496.158 T 1237.6 540.416 T 1547 425.568 L 1547 0 Z" style="fill:url('#lg-o578w6yh81n');opacity:0.4;;animation:none"></path>
<path opacity="0.4" fill="url(#lg-o578w6yh81n)" d="M 0 0 L 0 780.365 Q 154.7 658.714 309.4 637.369 T 618.8 536.833 T 928.2 551.57 T 1237.6 347.494 T 1547 273.133 L 1547 0 Z" style="fill:url('#lg-o578w6yh81n');opacity:0.4;;animation:none"></path>
<g></g></g><!-- [ldio] generated by https://loading.io --></svg>